<svg viewBox="0 0 56 56" xmlns="http://www.w3.org/2000/svg"><circle cx="28" cy="28" r="28" fill="#fff"/><path fill-rule="evenodd" clip-rule="evenodd" d="M27.2204 9.4078C27.6985 7.25103 29.8346 5.89023 31.9913 6.36838L33.6949 6.74605L35.5257 7.32328L37.2991 8.05788L39.0018 8.94424L40.6208 9.97563L42.1437 11.1442L43.5589 12.4411L44.8558 13.8563L46.0244 15.3792L47.0558 16.9982L47.9421 18.7009L48.6767 20.4743L49.254 22.3051L49.6694 24.1792L49.92 26.0823L50.0037 28.0001L49.92 29.9179L49.6694 31.821L49.254 33.6951L48.6767 35.5259L47.9421 37.2993L47.0558 39.002L46.0244 40.621L44.8558 42.1439L43.5589 43.5591L42.1437 44.856L40.6208 46.0246L39.0018 47.056L37.2991 47.9423L35.5257 48.6769L33.6949 49.2542L31.8208 49.6696L29.9177 49.9202L27.9999 50.0039L26.0821 49.9202L24.179 49.6696L22.3049 49.2542L20.4742 48.6769L18.7007 47.9423L16.998 47.056L15.379 46.0246L13.8561 44.856L12.4409 43.5591L11.144 42.1439L9.97544 40.621L8.94405 39.002L8.05768 37.2993L7.32309 35.5258L6.74586 33.6951L6.33038 31.821L6.07982 29.9179L5.99609 28.0001L6.07982 26.0823L6.33038 24.1792L6.70806 22.4756C7.1862 20.3188 9.32222 18.958 11.479 19.4362C13.6358 19.9143 14.9966 22.0503 14.5184 24.2071L14.2163 25.5697L14.057 26.7803L14.0037 28.0001L14.057 29.2199L14.2163 30.4305L14.4806 31.6226L14.8478 32.7871L15.3151 33.9151L15.8789 34.9982L16.5349 36.028L17.2782 36.9967L18.1031 37.8969L19.0033 38.7218L19.972 39.4651L21.0018 40.1212L22.0849 40.685L23.2129 41.1522L24.3774 41.5194L25.5695 41.7837L26.7801 41.943L27.9999 41.9963L29.2197 41.943L30.4303 41.7837L31.6224 41.5194L32.7869 41.1522L33.915 40.685L34.998 40.1211L36.0278 39.4651L36.9965 38.7218L37.8967 37.8969L38.7216 36.9967L39.4649 36.028L40.121 34.9982L40.6848 33.9151L41.152 32.7871L41.5192 31.6226L41.7835 30.4305L41.9428 29.2199L41.9961 28.0001L41.9428 26.7803L41.7835 25.5697L41.5192 24.3776L41.152 23.2131L40.6848 22.085L40.121 21.002L39.4649 19.9722L38.7216 19.0035L37.8967 18.1033L36.9965 17.2784L36.0278 16.5351L34.998 15.879L33.9149 15.3152L32.7869 14.848L31.6224 14.4808L30.2598 14.1787C28.103 13.7006 26.7422 11.5646 27.2204 9.4078Z" fill="#5d5f5f"/></svg>
